<?xml version="1.0" encoding="UTF-8"?>
<svg xmlns="http://www.w3.org/2000/svg" width="800" height="800" viewBox="0 0 2000 2000" preserveAspectRatio="xMidYMid meet">
  <g transform="translate(1000, 1000) scale(0.12, -0.12) translate(-9000, -6500)" fill="#000000" stroke="none">
    <path d="M9080 14049 c-102 -55 -302 -162 -445 -238 -143 -76 -390 -208 -550
    -294 -159 -85 -405 -215 -545 -289 -140 -74 -390 -207 -555 -295 -165 -88
    -475 -254 -690 -368 -214 -115 -475 -254 -580 -310 -104 -56 -332 -177 -505
    -270 -495 -263 -910 -485 -975 -521 -33 -17 -190 -101 -350 -186 -159 -85
    -530 -282 -823 -439 l-533 -284 838 -3 838 -2 100 52 c100 51 647 343 1290
    688 346 185 394 211 685 365 91 48 280 150 420 225 140 75 332 178 425 228 94
    49 366 195 605 322 239 128 575 307 745 398 171 91 422 225 558 299 l249 134
    91 -49 c51 -27 254 -136 452 -242 198 -106 437 -234 530 -285 94 -51 319 -171
    500 -268 326 -173 1181 -629 1590 -847 116 -61 287 -153 380 -202 94 -50 231
    -123 305 -163 317 -170 457 -244 832 -444 l396 -211 840 2 840 3 -316 168
    c-515 272 -1416 752 -1717 915 -71 38 -400 214 -730 390 -330 175 -617 329
    -638 340 -20 12 -133 72 -250 133 -116 62 -266 141 -332 177 -66 35 -192 103
    -280 150 -88 46 -259 137 -380 202 -121 65 -330 176 -465 247 -135 72 -312
    166 -395 210 -82 44 -368 196 -635 338 -267 141 -513 272 -548 291 -34 19 -68
    34 -75 33 -7 0 -95 -45 -197 -100z"/>
    <path d="M9327 10924 c-1 -1 -173 -4 -382 -8 -209 -3 -398 -8 -420 -11 -22 -2
    -116 -9 -210 -15 -150 -10 -516 -44 -585 -55 -14 -2 -88 -11 -165 -20 -77 -9
    -194 -25 -260 -35 -66 -11 -208 -33 -315 -50 -307 -48 -387 -69 -535 -143
    -201 -100 -378 -282 -474 -489 -44 -92 -76 -213 -155 -586 -30 -140 -56 -256
    -58 -258 -3 -2 -193 -5 -424 -7 -405 -3 -421 -4 -487 -26 -78 -25 -145 -80
    -180 -146 -18 -33 -22 -57 -22 -140 0 -95 2 -104 37 -177 76 -160 155 -261
    245 -313 74 -44 154 -55 402 -54 122 0 225 -1 226 -3 2 -2 -46 -73 -107 -158
    -61 -85 -177 -254 -257 -375 -328 -496 -453 -790 -517 -1216 -16 -103 -18
    -260 -21 -1624 -3 -1118 -1 -1526 7 -1570 23 -115 84 -196 188 -247 l67 -33
    455 0 455 0 47 23 c61 30 121 90 151 149 29 57 36 92 127 638 39 231 75 443
    80 470 l10 50 3033 -2 3032 -1 7 -35 c6 -31 36 -202 143 -827 19 -113 42 -224
    49 -247 20 -59 71 -129 119 -164 80 -58 101 -60 578 -57 l434 3 55 26 c31 14
    72 40 91 57 53 46 98 138 108 219 5 37 8 721 7 1518 -2 1568 -2 1547 -57 1825
    -79 398 -290 803 -734 1415 l-116 160 258 6 c275 6 297 10 389 64 97 57 217
    232 259 379 32 108 7 228 -63 308 -42 47 -135 87 -225 98 -39 4 -238 8 -442 9
    -203 1 -372 5 -376 9 -3 4 -27 108 -53 232 -114 541 -150 644 -287 816 -155
    195 -358 318 -624 379 -108 25 -758 124 -950 145 -55 6 -111 13 -125 15 -175
    26 -688 63 -990 70 -405 11 -440 11 -443 9z m 613 -858 c30 -3 114 -7 185 -11
    496 -24 1408 -152 1541 -216 74 -35 85 -63 180 -451 48 -194 146 -593 219
    -885 l131 -533 -2914 0 c-2770 0 -2913 1 -2908 18 5 16 75 300 330 1336 115
    464 120 477 194 515 45 23 341 81 587 115 419 59 715 87 1105 106 129 6 262
    12 295 14 78 5 983 -2 1055 -8z m-3521 -2957 c25 -6 84 -29 130 -51 147 -70
    279 -223 334 -389 53 -156 39 -356 -34 -508 -59 -122 -169 -232 -289 -288
    -136 -65 -252 -84 -391 -63 -322 47 -550 297 -567 621 -6 118 14 215 63 315
    43 88 62 116 126 181 94 96 232 169 361 192 61 11 199 6 267 -10z m6056 -4
    c239 -60 426 -266 475 -523 30 -150 -3 -337 -82 -469 -78 -131 -237 -249 -389
    -290 -88 -23 -263 -22 -348 1 -170 46 -306 151 -400 308 -102 171 -107 456
    -11 637 91 170 265 305 440 340 30 6 64 13 75 15 35 8 178 -3 240 -19z"/>
  </g>
</svg>
