<svg width="232" height="290" viewBox="0 0 232 290" fill="none" xmlns="http://www.w3.org/2000/svg">
<path d="M91.7383 154.059C92.0657 153.681 92.6634 153.569 93.1162 153.925L134.223 186.223C134.254 186.248 134.284 186.274 134.312 186.302C134.727 186.714 134.702 187.41 134.233 187.788L93.5518 220.62C92.9001 221.146 91.9293 220.686 91.9238 219.849L91.8369 206.5H69.3887C69.2435 206.543 68.9617 206.635 68.5488 206.827C67.5453 207.295 66.3045 208.102 65.127 209.225C62.6033 211.631 61.9504 213.831 61.9502 215V290H21.9502V215C21.9503 200.169 29.2977 188.119 37.5234 180.275C45.3772 172.787 56.8196 166.5 68.9502 166.5H91.5752L91.498 154.718C91.4964 154.456 91.5894 154.23 91.7383 154.059ZM118.375 0.0107422C121.917 0.118676 125 0.997712 126.628 1.49707C128.793 2.16138 131.026 3.01724 133.153 3.9043C137.431 5.68811 142.444 8.09243 147.701 10.7646C158.277 16.1401 171.021 23.2025 183.159 30.1299C195.346 37.0851 207.134 44.0265 215.86 49.2197C220.228 51.8188 223.839 53.9852 226.361 55.5049C227.623 56.2649 228.613 56.8635 229.29 57.2734C229.628 57.4783 229.888 57.6368 230.065 57.7441C230.154 57.7977 230.221 57.8382 230.268 57.8662C230.291 57.8802 230.309 57.891 230.321 57.8984C230.327 57.902 230.332 57.9052 230.335 57.9072L230.34 57.9102C230.34 57.9102 230.336 57.9158 230.281 58.0059L230.337 58.002V58.0059C230.337 58.0089 230.338 58.0134 230.338 58.0176C230.339 58.0263 230.34 58.0381 230.341 58.0518C230.343 58.08 230.347 58.1194 230.351 58.168C230.358 58.2658 230.369 58.4053 230.383 58.583C230.41 58.9393 230.45 59.4538 230.497 60.1104C230.592 61.4239 230.722 63.3133 230.865 65.667C231.152 70.3695 231.495 76.9576 231.725 84.5391C232.176 99.4797 232.214 119.143 230.271 135.93C228.068 154.947 220.596 171.87 210.122 184.386C199.977 196.508 185.131 206.5 167.95 206.5H130.923L154.715 187.298C155.215 186.894 155.209 186.13 154.704 185.733L130.226 166.5H167.95C169.269 166.5 173.876 165.371 179.446 158.715C184.687 152.453 189.191 142.939 190.536 131.328C192.139 117.487 192.177 100.149 191.742 85.7471C191.696 84.2303 191.645 82.7552 191.591 81.3311C183.529 76.5539 173.557 70.7057 163.332 64.8701C151.378 58.0476 139.29 51.3599 129.576 46.4229C124.689 43.9389 120.693 42.0462 117.758 40.8223C117.689 40.7935 117.62 40.7668 117.554 40.7393C117.399 40.8 117.238 40.8627 117.07 40.9297C113.944 42.1819 109.705 44.1005 104.55 46.5957C94.2988 51.5574 81.5118 58.2667 68.873 65.0957C56.2802 71.8999 44.0302 78.717 34.915 83.8408C30.3616 86.4004 26.5996 88.5325 23.9795 90.0225C22.6696 90.7673 21.6454 91.3514 20.9512 91.748C20.6044 91.9462 20.3397 92.0971 20.1631 92.1982C20.0748 92.2488 20.0085 92.2875 19.9648 92.3125C19.943 92.325 19.9264 92.3339 19.916 92.3398C19.911 92.3427 19.9076 92.3454 19.9053 92.3467L19.9023 92.3477C19.8956 92.3365 19.645 91.8991 9.9502 75C0.28183 58.147 0.00674104 57.6657 0 57.6514L0.00390625 57.6484C0.00738883 57.6464 0.0122382 57.6433 0.0185547 57.6396C0.031394 57.6323 0.0508919 57.6223 0.0751953 57.6084C0.1238 57.5805 0.194739 57.5388 0.288086 57.4854C0.474958 57.3784 0.750477 57.2211 1.1084 57.0166C1.82433 56.6076 2.87148 56.0099 4.20605 55.251C6.87506 53.7332 10.6952 51.5682 15.3145 48.9717C24.5451 43.783 37.0035 36.8501 49.8584 29.9043C62.6673 22.9833 76.0683 15.9426 87.123 10.5918C92.6208 7.93077 97.8143 5.55247 102.197 3.79688C104.376 2.92426 106.633 2.09303 108.791 1.4502C110.496 0.942276 113.879 -1.90735e-06 117.661 0L118.375 0.0107422ZM114.448 76C123.515 76 131.147 76.6801 137.339 78.04C139.319 78.4751 141.125 79.4399 142.54 80.8184C143.956 82.1973 144.922 83.933 145.321 85.8164L146.634 92H153.778C154.319 92.0008 154.851 92.1319 155.323 92.3809C155.795 92.63 156.192 92.9893 156.477 93.4238C156.761 93.8583 156.923 94.3542 156.947 94.8643C156.972 95.3744 156.858 95.8829 156.616 96.3398L155.558 98.3398C155.294 98.8386 154.888 99.2585 154.386 99.5518C153.884 99.8448 153.305 100 152.715 100H148.506C148.713 100.461 148.965 100.904 149.26 101.32L152.563 106C155.325 109.912 156.798 114.51 156.798 119.212V145.001C156.798 145.796 156.463 146.559 155.867 147.121C155.272 147.684 154.463 148 153.621 148H146.782C146.03 148 145.302 147.748 144.729 147.289C144.155 146.83 143.772 146.193 143.648 145.492L141.976 136H86.9209L85.2441 145.492C85.1207 146.193 84.7369 146.83 84.1631 147.289C83.5894 147.748 82.8622 148 82.1104 148H75.2744C73.5214 148 72.0978 146.656 72.0977 145L72.0986 119.212C72.0987 114.508 73.5719 109.912 76.333 106L79.6406 101.32C79.9351 100.904 80.1886 100.461 80.3955 100H76.1807C75.5914 99.9992 75.0137 99.8429 74.5127 99.5498C74.0118 99.2566 73.606 98.8378 73.3428 98.3398L72.2852 96.3398C72.0436 95.8828 71.9297 95.3745 71.9541 94.8643C71.9786 94.3543 72.1399 93.8582 72.4238 93.4238C72.7079 92.9895 73.1053 92.6309 73.5771 92.3818C74.0492 92.1327 74.5813 92.0008 75.1221 92L82.2588 92.001L83.5713 85.8164C83.971 83.9327 84.9363 82.1973 86.3525 80.8184C87.7688 79.4395 89.5764 78.4755 91.5576 78.041C97.7491 76.681 105.377 76 114.448 76ZM86.9209 112C85.2362 112 83.621 112.633 82.4297 113.758C81.2384 114.883 80.5684 116.409 80.5684 118C80.5684 119.591 81.2384 121.117 82.4297 122.242C83.621 123.367 85.2362 124 86.9209 124C88.6056 124 90.2208 123.367 91.4121 122.242C92.6034 121.117 93.2734 119.591 93.2734 118C93.2734 116.409 92.6034 114.883 91.4121 113.758C90.2208 112.633 88.6056 112 86.9209 112ZM141.976 112C140.291 112 138.676 112.633 137.484 113.758C136.293 114.883 135.623 116.409 135.623 118C135.623 119.591 136.293 121.117 137.484 122.242C138.676 123.367 140.291 124 141.976 124C143.66 124 145.277 123.367 146.468 122.242C147.659 121.117 148.328 119.591 148.328 118C148.328 116.409 147.659 114.883 146.468 113.758C145.277 112.633 143.66 112 141.976 112ZM114.448 84C105.979 84 98.9735 84.6282 93.4766 85.8281C93.0798 85.9155 92.7177 86.1091 92.4346 86.3857C92.1515 86.6624 91.9589 87.0112 91.8799 87.3887L89.2031 100.017C88.9109 101.404 88.4284 102.744 87.7637 104.004H141.133C140.469 102.74 139.985 101.399 139.693 100.016L137.021 87.3877C136.94 87.0106 136.747 86.6636 136.463 86.3877C136.179 86.1118 135.817 85.9195 135.42 85.833C129.923 84.6251 122.918 84 114.448 84Z" fill="#00408A"/>
</svg>
